<svg width="20" height="20" viewBox="0 0 20 20" fill="none" xmlns="http://www.w3.org/2000/svg">
<g clip-path="url(#clip0)">
<path d="M13.65 10.8477C13.8531 10.8164 14.0367 10.675 14.0367 10.375C14.0367 10.275 13.9859 10.1836 13.9 10.1L10.3 6.5C10.2 6.4 10.1055 6.35156 10.0055 6.35156C9.90547 6.35156 9.7687 6.4 9.7 6.5L5.9 10.1C5.84531 10.1523 5.8 10.3 5.8 10.4C5.8 10.7 6 10.9 6.3 10.9C6.4 10.9 6.52891 10.8516 6.6 10.8L9.5 7.9V19.5C9.5 19.8 9.7 20 10 20C10.3 20 10.5 19.8 10.5 19.5V7.9L13.3609 10.7461C13.4156 10.7937 13.5512 10.8629 13.65 10.8477ZM8 19.7922C8.1 19.7922 8.1 19.7922 8.2 19.7922C8.5 19.7922 8.7 19.5922 8.7 19.2922C8.7 18.9922 8.5 18.7922 8.2 18.7922C4 18.0922 1 14.3922 1 9.99221C1 4.99221 5 0.992201 10 0.992201C15 0.992201 19 4.99221 19 9.99221C19 14.3922 16 18.0922 11.8 18.8922C11.5 18.8922 11.3 19.0922 11.3 19.3922C11.3 19.6922 11.5 19.8922 11.8 19.8922C11.9 19.8922 11.9 19.8922 12 19.8922C16.6 18.9922 20 14.7922 20 9.99221C20 4.49221 15.5 -0.00779907 10 -0.00779907C4.5 -0.107799 0 4.49221 0 9.99221C0 14.7922 3.4 18.7922 8 19.7922Z" fill="#37474F"/>
</g>
<defs>
<clipPath id="clip0">
<rect width="20" height="20" fill="white"/>
</clipPath>
</defs>
</svg>
